/vscmnt/brussel_pixiu_data/_data_brussel/112/vsc11236/PredSimResults/SUBJ10opt3D/expIG/worker_08.mot
version=1
nRows=7
nColumns=50
inDegrees=yes
endheader
                time	         pelvis_tilt	         pelvis_list	     pelvis_rotation	           pelvis_tx	           pelvis_ty	           pelvis_tz	       hip_flexion_r	     hip_adduction_r	      hip_rotation_r	        knee_angle_r	       ankle_angle_r	         mtp_angle_r	       hip_flexion_l	     hip_adduction_l	      hip_rotation_l	        knee_angle_l	       ankle_angle_l	         mtp_angle_l	    lumbar_extension	      lumbar_bending	     lumbar_rotation	 ercspn_r/activation	 intobl_r/activation	 extobl_r/activation	    abd_r/activation	    add_r/activation	hamstrings_r/activation	bifemsh_r/activation	glut_max_r/activation	iliopsoas_r/activation	rect_fem_r/activation	  vasti_r/activation	gastroc_r/activation	 soleus_r/activation	tib_ant_r/activation	 ercspn_l/activation	 intobl_l/activation	 extobl_l/activation	    abd_l/activation	    add_l/activation	hamstrings_l/activation	bifemsh_l/activation	glut_max_l/activation	iliopsoas_l/activation	rect_fem_l/activation	  vasti_l/activation	gastroc_l/activation	 soleus_l/activation	tib_ant_l/activation	
          0.00000000	         -4.60312341	         -1.03403163	          7.64941895	          0.00000000	          0.81844092	         -0.01198690	         31.97920045	         -1.68211381	         -6.38679764	         -7.85811314	          3.56920072	          0.27771602	        -17.40212875	         -1.09263500	          0.36316259	         -5.87743636	          6.72050029	         28.79850974	         -7.00583892	         -0.05633859	         -6.86921880	          0.11142738	          0.15825922	          0.01000017	          0.01000000	          0.17899538	          0.12974156	          0.25672475	          0.05690055	          0.09911700	          0.01000033	          0.01000002	          0.02067929	          0.01387719	          0.31201257	          0.10867083	          0.01000002	          0.01000005	          0.04530634	          0.01000032	          0.01399687	          0.22040492	          0.01216466	          0.37751333	          0.01000056	          0.01000006	          0.29953187	          0.24623202	          0.02304090	
          0.01068133	         -4.62539808	         -1.02503283	          7.74750986	          0.01621215	          0.81714578	         -0.01192072	         31.80893299	         -1.56737077	         -6.00117656	         -9.50737674	          3.17323872	          0.26159768	        -17.41698409	         -1.22677262	          0.08083328	         -7.77562721	          5.87245695	         30.47456423	         -6.80970831	          0.39401497	         -7.13253575	          0.09458856	          0.13434320	          0.01000010	          0.02408199	          0.15194573	          0.11311612	          0.21792876	          0.10709248	          0.08413849	          0.01000005	          0.01000001	          0.01755426	          0.01178009	          0.39876592	          0.12692236	          0.01000002	          0.01000017	          0.03845967	          0.01933566	          0.02190030	          0.18709747	          0.01032647	          0.32046375	          0.01000011	          0.01000006	          0.25426679	          0.23139323	          0.01955897	
          0.02136265	         -4.63917861	         -1.02405535	          7.79972108	          0.03258368	          0.81613926	         -0.01173402	         31.51945203	         -1.44346877	         -5.67940182	        -10.93386286	          2.63728641	          0.25073808	        -17.26376740	         -1.37378946	         -0.23710689	         -9.98082348	          4.89558773	         32.00886570	         -6.60707803	          0.84958526	         -7.36392848	          0.11226096	          0.11404134	          0.01000009	          0.07996062	          0.16734168	          0.09602211	          0.18499553	          0.12896226	          0.07142353	          0.01000007	          0.01000002	          0.01490148	          0.01000002	          0.46481484	          0.14831127	          0.01000001	          0.01000006	          0.03264767	          0.01641378	          0.01859323	          0.15882342	          0.01000010	          0.27203549	          0.01000033	          0.01000007	          0.21584213	          0.21301297	          0.01660324	
          0.03204398	         -4.64415744	         -1.01649405	          7.80783436	          0.04892665	          0.81554044	         -0.01143186	         31.22114856	         -1.31644419	         -5.43967818	        -12.35189481	          2.12311617	          0.23360836	        -16.88420474	         -1.51965734	         -0.59136051	        -12.56617413	          3.79629247	         33.26529996	         -6.41918799	          1.29349684	         -7.56092184	          0.11763526	          0.09680748	          0.01000009	          0.11965180	          0.22450295	          0.08151136	          0.15703914	          0.14303550	          0.06063005	          0.01000009	          0.01000011	          0.01264959	          0.01000006	          0.49633863	          0.18406159	          0.01000002	          0.01000006	          0.02771397	          0.02068684	          0.02235902	          0.13482213	          0.01000013	          0.23092566	          0.01000017	          0.01000005	          0.18322418	          0.18853902	          0.01409417	
          0.04272531	         -4.64003702	         -1.00517961	          7.77655577	          0.06513480	          0.81542423	         -0.01102434	         30.96649153	         -1.18735116	         -5.26530239	        -13.87686783	          1.79755660	          0.21652444	        -16.23851078	         -1.67110181	         -0.98831055	        -15.57789303	          2.59863605	         34.05790885	         -6.25205861	          1.72637840	         -7.72446394	          0.12169765	          0.08217798	          0.01000008	          0.14892801	          0.26782147	          0.06991883	          0.13330750	          0.15279274	          0.05146767	          0.01000010	          0.03478886	          0.01073802	          0.01000008	          0.50005335	          0.21042593	          0.01000002	          0.01000005	          0.02352585	          0.08009191	          0.01899481	          0.11444791	          0.01000004	          0.19602832	          0.01000012	          0.01000002	          0.15553543	          0.16004712	          0.01196427	
          0.05340663	         -4.62835672	         -0.98588148	          7.70602319	          0.08113722	          0.81587159	         -0.01053614	         30.71715806	         -1.06059698	         -5.14704832	        -15.43255334	          1.70216474	          0.19909902	        -15.29050216	         -1.82687124	         -1.44811414	        -19.05492984	          1.30636963	         34.19592509	         -6.10775793	          2.14304021	         -7.85250327	          0.11877812	          0.06975929	          0.01000008	          0.16427354	          0.29543879	          0.06572316	          0.11316218	          0.14676877	          0.04368990	          0.01000009	          0.06975806	          0.01000009	          0.01000006	          0.48434056	          0.22388465	          0.01000002	          0.01000006	          0.01997064	          0.15036592	          0.01956291	          0.09715265	          0.01000002	          0.16640465	          0.01000010	          0.01000001	          0.13203100	          0.13586089	          0.01015624	
          0.06408796	         -4.61151207	         -0.95493643	          7.59596752	          0.09689303	          0.81691921	         -0.00999411	         30.39674837	         -0.93223025	         -5.05885338	        -16.87633366	          1.85320979	          0.18522023	        -14.02304510	         -1.99120456	         -1.97535740	        -22.97188410	         -0.20575506	         33.67767580	         -5.98637884	          2.54016555	         -7.94289372	          0.10888293	          0.05921731	          0.01000009	          0.16810714	          0.30519423	          0.06418612	          0.09606121	          0.13462909	          0.03708751	          0.01000008	          0.09564021	          0.01000008	          0.01000004	          0.45216578	          0.22362393	          0.01000003	          0.01000006	          0.01695269	          0.21456922	          0.02047081	          0.08247106	          0.01000002	          0.14125768	          0.01000009	          0.01000001	          0.11207854	          0.11532966	          0.01000001	
